<?xml version="1.0" encoding="utf-8"?>
<!-- Generator: Adobe Illustrator 19.0.0, SVG Export Plug-In . SVG Version: 6.00 Build 0)  -->
<svg version="1.1" id="Layer_1" xmlns="http://www.w3.org/2000/svg" xmlns:xlink="http://www.w3.org/1999/xlink" x="0px" y="0px"
	 viewBox="0 0 100 100" style="enable-background:new 0 0 100 100;" xml:space="preserve">
<g id="XMLID_1_">
	<path id="XMLID_21_" d="M81.9,30c-0.4-0.6-0.8-1.2-1.3-1.6c-2.6-2.5-3.5-5.5-2.8-9.1c0.1-0.5,0.1-1,0.1-1.5c0.1-2.9-1.6-6-4.4-6.4
		c-5-0.9-8.4-3.4-10.8-7.8c-1.4-2.6-4.7-3.3-7.4-2.2c-1.2,0.5-2.3,1.3-3.6,1.5c-1.5,0.3-3.1,0.4-4.5,0.1c-1.6-0.3-3.1-1.1-4.7-1.6
		c-2.7-0.9-5.3,0-6.9,2.3c-4.5,6.7-3.2,5.7-10.7,7.8c-2.9,0.8-4.5,3.1-4.4,6.1c0,0.7-0.1,1.4,0.1,2.1c0.7,3.6-0.5,6.4-3,9
		c-3.5,3.7-3.4,6.3-0.2,10.3c1.5,1.8,3.2,3.5,3.3,6c0.1,1.6-0.2,3.2-0.2,4.9c-0.1,3.4,1.6,5.8,4.9,6.7c0.4,0.1,0.9,0.2,1.3,0.4
		c0.1,0,1.3-0.3,3,0.4c0,0.2-0.1,0.4-0.1,0.6c-1.7,11.1-3.4,22.3-5.1,33.4c-0.1,0.5-0.1,1-0.2,1.5c-0.2,1.6,0.2,3.1,1.6,4
		s2.9,0.8,4.3,0c3.7-2.1,7.4-4.2,11-6.3c1.6-0.9,3-0.8,4.3,0.4c1.7,1.4,3.4,2.9,5.1,4.3c1.6,1.3,3.2,2.8,4.9,4
		c2.7,1.8,5.4,0.5,6-2.6c0.1-0.6,0.1-1.3,0.1-1.9c0-3.1,0-6.2,0-9.6c2.8,1.4,5.1,2.5,7.5,3.7c1.6,0.8,3.2,0.9,4.6-0.3
		c1.4-1.2,1.5-2.8,1.1-4.5C72.9,75,71,66.3,69,57.5c0.9-0.2,1.7-0.5,2.6-0.7l0.8-0.2c3.6-1,5.1-3,5.2-6.7c0-1.9-0.4-4.1,0.3-5.8
		c0.9-2.3,2.5-4.2,3.9-6.2C83.6,35.3,83.7,32.5,81.9,30z M57.1,94c-3-2.4-5.7-4.6-8.4-6.8c-3.3-2.6-6.6-2.9-10.2-0.9
		c-3,1.7-5.9,3.4-8.9,5.1c-0.1,0-0.2,0-0.4,0c1.5-10,3.1-20.1,4.6-30.3c0.4,0.7,0.9,1.5,1.3,2.5c2.4,2.9,5.1,3.7,8.4,2.4
		c1.2-0.4,2.3-1.1,3.5-1.3c1.5-0.2,3.1-0.3,4.5,0c2,0.4,3.9,1.3,5.9,2h0C57.3,75.9,57.2,84.9,57.1,94z M70,83.4
		c-2.9-1.3-5.4-2.4-8-3.5c0-4.6,0-9.5,0-14.4c0-0.5,0-0.9,0-1.4c0.9-0.8,1.8-1.8,3-3.1C66.7,68.3,68.3,75.8,70,83.4z M77.2,35.9
		c-2.1,2.6-4.3,5.1-4.3,8.7c0,1.5,0.1,3,0.1,4.6c0,2.4,0,2.5-2.4,3.1c-0.9,0.2-1.8,0.4-2.7,0.7c-1.5,0.4-3,1-4.2,2.1
		c-0.1,0.1-0.3,0.2-0.4,0.4c-0.4,0.4-0.8,0.8-1.1,1.3c-1,1.2-1.9,2.6-2.8,3.9c-0.6,0.9-1.1,1.3-1.9,1.3c-0.3,0-0.7-0.1-1.2-0.3
		c-2.9-1.3-5.9-2.6-9.3-1.8c-2,0.5-3.9,1.2-5.8,1.9c-1.2,0.4-2,0.3-2.6-0.8c-0.4-0.7-0.9-1.2-1.2-1.9c-0.8-1.4-1.7-2.6-2.8-3.5
		c-1.3-1.1-2.8-1.9-4.5-2.5c-0.4-0.1-0.9-0.2-1.3-0.3c-0.1,0-0.1,0-0.2,0c-4.4-1.3-3.9-0.4-3.8-5.5c0.9-4.4-1.4-7.9-4.3-11.3
		c-1.7-1.9-1.6-2,0-3.9c2.3-2.7,4.4-5.4,4.3-9.2c0-1.4,0-2.8-0.2-4.2c-0.2-1.6,0.4-2.5,2.1-2.9c3.2-0.7,6.5-1.6,8.7-4.3
		c1.1-1.4,2.1-2.9,3-4.4c0.7-1.1,1.4-1.3,2.6-0.8c1.7,0.7,3.4,1.3,5.2,1.8c3.2,0.9,6.2-0.2,9.1-1.4c2.7-1,2.9-1.1,4.2,1.4
		c2.3,4.2,5.8,6.7,10.5,7.6c2.8,0.5,2.7,0.7,2.7,3.6c0,2-0.1,4,0.2,6c0.4,2.7,2.3,4.7,4,6.8C78.9,33.9,78.9,33.9,77.2,35.9z"/>
	<path id="XMLID_476_" d="M49,13.9c-10.8,0-20,9.1-20,19.8c0,11.2,8.8,20.2,19.9,20.2c11,0,20.2-9.1,20.1-19.8
		C69,23,59.9,13.9,49,13.9z M49,49.1c-8.6,0-15.1-6.8-15-15.6c0-8,7-14.7,15.2-14.7c8.3,0,15.1,7,15.1,15.4
		C64.2,42.3,57.3,49.1,49,49.1z"/>
</g>
</svg>
