<?xml version="1.0" encoding="utf-8"?>
<!-- Generator: Adobe Illustrator 19.0.0, SVG Export Plug-In . SVG Version: 6.00 Build 0)  -->
<svg version="1.1" id="Layer_1" xmlns="http://www.w3.org/2000/svg" xmlns:xlink="http://www.w3.org/1999/xlink" x="0px" y="0px"
	 viewBox="0 0 150 150" style="enable-background:new 0 0 150 150;" xml:space="preserve">
<g id="XMLID_2_">
	<g id="XMLID_1485_">
		<path id="XMLID_53_" d="M111.6,88.3c-2,0-3.7-1.6-3.7-3.7V39.2H46.2c-2,0-3.7-1.6-3.7-3.7s1.6-3.7,3.7-3.7h65.4
			c2,0,3.7,1.6,3.7,3.7v49.1C115.2,86.6,113.6,88.3,111.6,88.3z"/>
	</g>
	<g id="XMLID_1484_">
		<path id="XMLID_51_" d="M41.7,113.4H25.8c-2,0-3.7-1.6-3.7-3.7s1.6-3.7,3.7-3.7h15.9c2,0,3.7,1.6,3.7,3.7S43.8,113.4,41.7,113.4z"
			/>
	</g>
	<g id="XMLID_1483_">
		<path id="XMLID_50_" d="M110.9,113.4H65.1c-2,0-3.7-1.6-3.7-3.7s1.6-3.7,3.7-3.7h45.8c2,0,3.7,1.6,3.7,3.7
			S112.9,113.4,110.9,113.4z"/>
	</g>
	<g id="XMLID_1482_">
		<path id="XMLID_48_" d="M146.3,113.4h-12c-2,0-3.7-1.6-3.7-3.7s1.6-3.7,3.7-3.7h8.4V86.6l-8.3-5.3c-1.1-0.7-1.7-1.8-1.7-3.1V58.9
			h-21.1c-2,0-3.7-1.6-3.7-3.7c0-2,1.6-3.7,3.7-3.7h24.7c2,0,3.7,1.6,3.7,3.7v20.9l8.3,5.3c1.1,0.7,1.7,1.8,1.7,3.1v25.2
			C150,111.8,148.4,113.4,146.3,113.4z"/>
	</g>
	<g id="XMLID_1481_">
		<path id="XMLID_47_" d="M75.6,58.9H31.2c-2,0-3.7-1.6-3.7-3.7c0-2,1.6-3.7,3.7-3.7h44.4c2,0,3.7,1.6,3.7,3.7
			C79.3,57.3,77.6,58.9,75.6,58.9z"/>
	</g>
	<g id="XMLID_1480_">
		<path id="XMLID_46_" d="M64.7,78.4H27.1c-2,0-3.7-1.6-3.7-3.7s1.6-3.7,3.7-3.7h37.6c2,0,3.7,1.6,3.7,3.7S66.7,78.4,64.7,78.4z"/>
	</g>
	<g id="XMLID_1479_">
		<path id="XMLID_24_" d="M122.6,125.1c-8.5,0-15.4-6.9-15.4-15.4s6.9-15.4,15.4-15.4c8.5,0,15.4,6.9,15.4,15.4
			S131.1,125.1,122.6,125.1z M122.6,101.7c-4.4,0-8,3.6-8,8s3.6,8,8,8s8-3.6,8-8S127,101.7,122.6,101.7z"/>
	</g>
	<g id="XMLID_1478_">
		<path id="XMLID_19_" d="M53.4,125.1c-8.5,0-15.4-6.9-15.4-15.4S45,94.4,53.4,94.4c8.5,0,15.4,6.9,15.4,15.4S61.9,125.1,53.4,125.1
			z M53.4,101.7c-4.4,0-8,3.6-8,8s3.6,8,8,8s8-3.6,8-8S57.9,101.7,53.4,101.7z"/>
	</g>
	<g id="XMLID_6_">
		<g id="XMLID_1_">
			<path id="XMLID_56_" d="M13.9,64.6H8.3v-5.8c-3.6-0.8-6.6-3-8.3-6.3l4.3-3.2c1.8,2.9,4.2,4.3,7.1,4.3c2.4,0,4.1-0.9,4.1-2.8
				c0-1.5-1.1-2.3-3.6-3.2l-3.2-1.2c-4.4-1.6-7-4.4-7-8.2c0-3.8,2.7-6.7,6.7-7.7v-5.6h5.5v5.5c3.1,0.7,5.4,2.4,7,5.4L16.6,39
				c-1.5-2.2-3.2-3.2-5.4-3.2c-1.9,0-3.4,0.8-3.4,2.4c0,1.4,1,2.1,3.1,3l3.5,1.2c4.7,1.7,7.1,4.5,7.1,8.3c0,4.4-3.1,7.5-7.8,8.2
				V64.6z"/>
		</g>
	</g>
</g>
</svg>
