<?xml version="1.0" encoding="utf-8"?>
<!-- Generator: Adobe Illustrator 19.0.0, SVG Export Plug-In . SVG Version: 6.00 Build 0)  -->
<svg version="1.1" id="Layer_1" xmlns="http://www.w3.org/2000/svg" xmlns:xlink="http://www.w3.org/1999/xlink" x="0px" y="0px"
	 viewBox="0 0 150 150" style="enable-background:new 0 0 150 150;" xml:space="preserve">
<style type="text/css">
	.st0{fill:#010101;}
</style>
<g id="XMLID_1_">
	<g id="XMLID_1502_">
		<path id="XMLID_19_" d="M58.5,119.3L0.2,92.7V31.5l57-27.7l59.5,27.6v36.2c0,1.6-1.3,3-3,3s-3-1.3-3-3V35.3L57.2,10.4L6.1,35.2
			v53.7l52.2,23.8l17.9-9.9c1.4-0.8,3.2-0.3,4,1.2c0.8,1.4,0.3,3.2-1.2,4L58.5,119.3z"/>
	</g>
	<g id="XMLID_6_">
		<path id="XMLID_25_" d="M79.7,107.5c1.4-0.8,1.9-2.6,1.2-4s-2.6-1.9-4-1.2l-4.1,2.3l3.7,4.7L79.7,107.5z"/>
	</g>
	<g id="XMLID_1501_">
		<path id="XMLID_18_" d="M58.4,60.1L2,36.1c-1.5-0.6-2.2-2.4-1.6-3.9C1,30.7,2.8,30,4.3,30.6l54.1,23.1l54.1-23.1
			c1.5-0.6,3.2,0.1,3.9,1.6c0.6,1.5-0.1,3.2-1.6,3.9L58.4,60.1z"/>
	</g>
	<g id="XMLID_1500_">
		<path id="XMLID_17_" d="M58.4,119c-1.6,0-3-1.3-3-3V56.9c0-1.6,1.3-3,3-3s3,1.3,3,3V116C61.4,117.7,60,119,58.4,119z"/>
	</g>
	<g id="XMLID_1499_">
		<path id="XMLID_16_" d="M30.3,47.9c-1.1,0-2.1-0.6-2.6-1.6c-0.7-1.5-0.1-3.2,1.3-4l52.2-26c1.5-0.7,3.2-0.1,4,1.3
			c0.7,1.5,0.1,3.2-1.3,4l-52.2,26C31.2,47.8,30.8,47.9,30.3,47.9z"/>
	</g>
	<g id="XMLID_8_">
		<path id="XMLID_24_" d="M57.1,3.9l-57,27.7v61.2l58.4,26.6l16.6-9.2l-3.4-4.9l-13.4,7.4L6.1,88.9V35.2l51.1-24.8l53.5,24.9v32.4
			c0,1.6,1.3,3,3,3c1.6,0,3-1.3,3-3V31.5L57.1,3.9z"/>
	</g>
	<g id="XMLID_1493_">
		<g id="XMLID_1494_">
			<path id="XMLID_23_" d="M58.4,60.1L2,36.1c-1.5-0.6-2.2-2.4-1.6-3.9C1,30.7,2.8,30,4.3,30.6l54.1,23.1l54.1-23.1
				c1.5-0.6,3.2,0.1,3.9,1.6c0.6,1.5-0.1,3.2-1.6,3.9L58.4,60.1z"/>
		</g>
	</g>
	<g id="XMLID_1491_">
		<g id="XMLID_1492_">
			<path id="XMLID_22_" d="M58.4,119c-1.6,0-3-1.3-3-3V56.9c0-1.6,1.3-3,3-3c1.6,0,3,1.3,3,3V116C61.4,117.7,60,119,58.4,119z"/>
		</g>
	</g>
	<g id="XMLID_1489_">
		<g id="XMLID_1490_">
			<path id="XMLID_20_" d="M30.3,47.9c-1.1,0-2.1-0.6-2.6-1.6c-0.7-1.5-0.1-3.2,1.3-4l52.2-26c1.5-0.7,3.2-0.1,4,1.3
				c0.7,1.5,0.1,3.2-1.3,4l-52.2,26C31.2,47.8,30.8,47.9,30.3,47.9z"/>
		</g>
	</g>
	<g id="XMLID_9_">
		<g id="XMLID_10_">
			<g id="XMLID_11_">
				<path id="XMLID_2_" class="st0" d="M116.6,145.1c-0.4,0-0.8-0.1-1.1-0.3l-14.3-8.3c-10.8-6.2-16.6-18.2-14.8-30.5l2.8-19.6
					c0.2-1.1,1.1-2,2.2-2c0,0,0,0,0,0c9.8,0,17.3-2.8,23.6-8.9c0.9-0.9,2.3-0.9,3.2,0c6.3,6.1,13.7,8.9,23.6,8.9c0,0,0,0,0,0
					c1.1,0,2.1,0.8,2.2,2l2.8,19.6c1.8,12.3-4,24.3-14.8,30.5l-14.3,8.3C117.4,145,117,145.1,116.6,145.1z M91.5,85.5
					c-0.6,0-1.2,0.5-1.2,1.1l-2.8,19.6c-1.7,11.9,3.9,23.5,14.3,29.5L116,144c0.4,0.2,0.9,0.2,1.3,0l14.3-8.3
					c10.4-6,16-17.6,14.3-29.5l-2.8-19.6c-0.1-0.6-0.6-1.1-1.2-1.1c-10.1,0-17.8-2.9-24.3-9.2c-0.5-0.5-1.3-0.5-1.8,0
					C109.3,82.6,101.6,85.5,91.5,85.5C91.5,85.5,91.5,85.5,91.5,85.5z"/>
				<path id="XMLID_12_" d="M116.6,147.8c-0.9,0-1.7-0.2-2.5-0.7l-14.3-8.3c-11.7-6.8-18-19.8-16.1-33.2l2.8-19.5
					c0.3-2.4,2.4-4.2,4.9-4.2c9.1,0,16-2.6,21.7-8.2c1.9-1.9,5-1.9,6.9,0c5.7,5.6,12.6,8.2,21.7,8.2c2.4,0,4.5,1.8,4.9,4.2l2.8,19.6
					c1.9,13.4-4.4,26.4-16.1,33.2l-14.3,8.3C118.4,147.6,117.5,147.8,116.6,147.8z M92.7,88.2l-2.6,18.4c-1.6,10.8,3.5,21.3,13,26.8
					l13.6,7.9l13.6-7.9c9.5-5.5,14.6-16,13-26.8l-2.6-18.4c-9.8-0.2-17.4-3.1-24-9C110.1,85.1,102.5,88,92.7,88.2z"/>
			</g>
		</g>
	</g>
	<g id="XMLID_21_">
		<path id="XMLID_3_" d="M115.4,125l-13-9.1c-1.1-0.8-1.4-2.3-0.6-3.5c0.8-1.1,2.3-1.4,3.5-0.6l8.7,6.1l13.9-22
			c0.7-1.2,2.3-1.5,3.4-0.8c1.2,0.7,1.5,2.3,0.8,3.4L115.4,125z"/>
	</g>
	<g id="XMLID_7_">
		<line id="XMLID_13_" x1="104.9" y1="112.3" x2="108.6" y2="116"/>
	</g>
</g>
</svg>
