<?xml version="1.0" encoding="utf-8"?>
<!-- Generator: Adobe Illustrator 19.0.0, SVG Export Plug-In . SVG Version: 6.00 Build 0)  -->
<svg version="1.1" id="Layer_1" xmlns="http://www.w3.org/2000/svg" xmlns:xlink="http://www.w3.org/1999/xlink" x="0px" y="0px"
	 width="89px" height="160px" viewBox="0 0 89 160" style="enable-background:new 0 0 89 160;" xml:space="preserve">
<style type="text/css">
	.st0{fill:none;stroke:#000000;stroke-width:1.4057;stroke-miterlimit:10;}
	.st1{fill:none;stroke:#000000;stroke-width:0.8733;stroke-miterlimit:10;}
	.st2{fill:none;stroke:#000000;stroke-width:1.0678;stroke-miterlimit:10;}
</style>
<g id="XMLID_1789_">
	<g id="XMLID_1804_">
		<path id="XMLID_2531_" class="st0" d="M79.1,156.8H9.7c-4.3,0-7.9-3.5-7.9-7.9V11.1c0-4.3,3.5-7.9,7.9-7.9h69.4
			c4.3,0,7.9,3.5,7.9,7.9v137.8C87,153.2,83.5,156.8,79.1,156.8z"/>
		<path id="XMLID_2530_" class="st1" d="M75.7,140.4H13.1c-2.6,0-4.6-2.1-4.6-4.6V24.7c0-2.6,2.1-4.6,4.6-4.6h62.7
			c2.6,0,4.6,2.1,4.6,4.6v111.2C80.4,138.4,78.3,140.4,75.7,140.4z"/>
		<circle id="XMLID_2529_" class="st1" cx="43.6" cy="148.7" r="4.7"/>
		<g id="XMLID_1807_">
			<rect id="XMLID_2505_" x="34.5" y="11.6" class="st1" width="24.9" height="2.3"/>
			<circle id="XMLID_1818_" class="st1" cx="29.5" cy="12.8" r="1.7"/>
		</g>
	</g>
</g>
<g id="XMLID_1707_">
	<rect id="XMLID_1781_" x="55.6" y="117.6" class="st2" width="15.7" height="10.1"/>
	<rect id="XMLID_1764_" x="36" y="117.6" class="st2" width="15.7" height="10.1"/>
	<rect id="XMLID_1754_" x="16.4" y="117.6" class="st2" width="15.7" height="10.1"/>
	<rect id="XMLID_1718_" x="55.6" y="102.2" class="st2" width="15.7" height="10.1"/>
	<rect id="XMLID_1715_" x="36" y="102.2" class="st2" width="15.7" height="10.1"/>
	<rect id="XMLID_1711_" x="16.4" y="102.2" class="st2" width="15.7" height="10.1"/>
	<rect id="XMLID_1710_" x="55.6" y="86.7" class="st2" width="15.7" height="10.1"/>
	<rect id="XMLID_1709_" x="36" y="86.7" class="st2" width="15.7" height="10.1"/>
	<rect id="XMLID_1708_" x="16.4" y="86.7" class="st2" width="15.7" height="10.1"/>
</g>
</svg>
