<?xml version="1.0" encoding="utf-8"?>
<!-- Generator: Adobe Illustrator 19.0.0, SVG Export Plug-In . SVG Version: 6.00 Build 0)  -->
<svg version="1.1" id="Layer_1" xmlns="http://www.w3.org/2000/svg" xmlns:xlink="http://www.w3.org/1999/xlink" x="0px" y="0px"
	 width="89px" height="160px" viewBox="0 0 89 160" style="enable-background:new 0 0 89 160;" xml:space="preserve">
<style type="text/css">
	.st0{fill:none;stroke:#000000;stroke-width:1.4034;stroke-miterlimit:10;}
	.st1{fill:none;stroke:#000000;stroke-width:0.8719;stroke-miterlimit:10;}
	.st2{fill:none;stroke:#000000;stroke-width:1.1696;stroke-miterlimit:10;}
</style>
<path id="XMLID_502_" class="st0" d="M79.6,156.4H9.9c-4.3,0-7.9-3.5-7.9-7.9V10.4c0-4.3,3.5-7.9,7.9-7.9h69.7
	c4.3,0,7.9,3.5,7.9,7.9v138.2C87.4,152.9,83.9,156.4,79.6,156.4z"/>
<path id="XMLID_500_" class="st1" d="M76.2,140.1H13.3c-2.6,0-4.6-2.1-4.6-4.6V23.9c0-2.6,2.1-4.6,4.6-4.6h62.9
	c2.6,0,4.6,2.1,4.6,4.6v111.5C80.8,138,78.7,140.1,76.2,140.1z"/>
<circle id="XMLID_499_" class="st1" cx="44.9" cy="148.3" r="4.8"/>
<g id="XMLID_91_">
	<path id="XMLID_124_" class="st2" d="M30.4,107.7H28c-2.2,0-4.1-1.8-4.1-4.1V78.8c0-2.2,1.8-4.1,4.1-4.1h2.4c2.2,0,4.1,1.8,4.1,4.1
		v24.8C34.4,105.9,32.6,107.7,30.4,107.7z"/>
	<path id="XMLID_115_" class="st2" d="M45.4,107.7H43c-2.2,0-4.1-1.8-4.1-4.1V68.4c0-2.2,1.8-4.1,4.1-4.1h2.4c2.2,0,4.1,1.8,4.1,4.1
		v35.2C49.4,105.9,47.6,107.7,45.4,107.7z"/>
	<path id="XMLID_103_" class="st2" d="M61.1,107.7h-2.4c-2.2,0-4.1-1.8-4.1-4.1V59c0-2.2,1.8-4.1,4.1-4.1h2.4c2.2,0,4.1,1.8,4.1,4.1
		l0,44.6C65.2,105.9,63.4,107.7,61.1,107.7z"/>
</g>
</svg>
