<?xml version="1.0" encoding="utf-8"?>
<!-- Generator: Adobe Illustrator 19.0.0, SVG Export Plug-In . SVG Version: 6.00 Build 0)  -->
<svg version="1.1" id="Layer_1" xmlns="http://www.w3.org/2000/svg" xmlns:xlink="http://www.w3.org/1999/xlink" x="0px" y="0px"
	 viewBox="-30 -4.5 88.7 159.5" style="enable-background:new -30 -4.5 88.7 159.5;" xml:space="preserve">
<style type="text/css">
	.st0{fill:none;stroke:#000000;stroke-width:1.5152;stroke-miterlimit:10;}
	.st1{fill:none;stroke:#000000;stroke-width:0.9413;stroke-miterlimit:10;}
	.st2{fill:none;stroke:#000000;stroke-width:0.9413;stroke-linecap:round;stroke-linejoin:round;stroke-miterlimit:10;}
</style>
<path id="XMLID_2012_" class="st0" d="M49.6,152.9h-70.5c-4.3,0-7.9-3.5-7.9-7.9V5.5c0-4.3,3.5-7.9,7.9-7.9h70.5
	c4.3,0,7.9,3.5,7.9,7.9v139.7C57.5,149.4,53.9,152.9,49.6,152.9z"/>
<g id="XMLID_1993_">
	<rect id="XMLID_1995_" x="5.2" y="6.1" class="st1" width="25.2" height="2.4"/>
	<circle id="XMLID_1994_" class="st1" cx="0.1" cy="7.3" r="1.8"/>
</g>
<path id="XMLID_1992_" class="st1" d="M46.1,136.4h-63.5c-2.6,0-4.6-2.1-4.6-4.6V19.2c0-2.6,2.1-4.6,4.6-4.6h63.6
	c2.6,0,4.6,2.1,4.6,4.6v112.7C50.7,134.4,48.7,136.4,46.1,136.4z"/>
<circle id="XMLID_1991_" class="st1" cx="13.5" cy="144.9" r="4.8"/>
<line class="st2" x1="16.7" y1="38.3" x2="-4" y2="63.2"/>
<line class="st2" x1="38.3" y1="28.5" x2="-11.3" y2="88.3"/>
</svg>
